<mxfile host="65bd71144e">
    <diagram id="stv4k0gGzNc69gaz2TCE" name="Seite-1">
        <mxGraphModel dx="1295" dy="707" grid="0" gridSize="10" guides="1" tooltips="1" connect="1" arrows="1" fold="1" page="0" pageScale="1" pageWidth="827" pageHeight="1169" background="#ffffff" math="0" shadow="0">
            <root>
                <mxCell id="0"/>
                <mxCell id="1" parent="0"/>
                <mxCell id="2" value="" style="shape=flexArrow;endArrow=classic;startArrow=classic;html=1;strokeColor=none;fillColor=#5e5c60;sketch=1;curveFitting=1;jiggle=2;" parent="1" edge="1">
                    <mxGeometry width="100" height="100" relative="1" as="geometry">
                        <mxPoint x="74" y="280" as="sourcePoint"/>
                        <mxPoint x="754" y="280" as="targetPoint"/>
                    </mxGeometry>
                </mxCell>
                <mxCell id="3" value="" style="shape=flexArrow;endArrow=classic;startArrow=classic;html=1;strokeColor=none;fillColor=#5e5c60;sketch=1;curveFitting=1;jiggle=2;" parent="1" edge="1">
                    <mxGeometry width="100" height="100" relative="1" as="geometry">
                        <mxPoint x="414" y="40" as="sourcePoint"/>
                        <mxPoint x="414" y="560" as="targetPoint"/>
                    </mxGeometry>
                </mxCell>
                <mxCell id="11" value="Positive" style="text;html=1;strokeColor=none;fillColor=none;align=center;verticalAlign=middle;whiteSpace=wrap;rounded=0;fontSize=22;fontColor=#000000;fontStyle=1" parent="1" vertex="1">
                    <mxGeometry x="384" y="10" width="60" height="30" as="geometry"/>
                </mxCell>
                <mxCell id="12" value="Negative" style="text;html=1;strokeColor=none;fillColor=none;align=center;verticalAlign=middle;whiteSpace=wrap;rounded=0;fontSize=22;fontColor=#000000;fontStyle=1" parent="1" vertex="1">
                    <mxGeometry x="384" y="570" width="60" height="30" as="geometry"/>
                </mxCell>
                <mxCell id="13" value="Expierienced" style="text;html=1;strokeColor=none;fillColor=none;align=center;verticalAlign=middle;whiteSpace=wrap;rounded=0;fontSize=22;fontColor=#000000;fontStyle=1;rotation=90;" parent="1" vertex="1">
                    <mxGeometry x="750" y="270" width="60" height="30" as="geometry"/>
                </mxCell>
                <mxCell id="14" value="Inexpierienced" style="text;html=1;strokeColor=none;fillColor=none;align=center;verticalAlign=middle;whiteSpace=wrap;rounded=0;fontSize=22;fontColor=#000000;fontStyle=1;rotation=-90;" parent="1" vertex="1">
                    <mxGeometry x="20" y="260" width="60" height="30" as="geometry"/>
                </mxCell>
                <mxCell id="15" value="Agile-Purist" style="ellipse;whiteSpace=wrap;html=1;strokeColor=#000000;fillColor=none;fontStyle=1;fontColor=#000000;fontSize=16;strokeWidth=2;sketch=1;curveFitting=1;jiggle=2;" parent="1" vertex="1">
                    <mxGeometry x="510" y="140" width="230" height="190" as="geometry"/>
                </mxCell>
                <mxCell id="16" value="Scrum-Evangelist" style="ellipse;whiteSpace=wrap;html=1;strokeColor=#000000;fillColor=none;fontStyle=1;fontColor=#000000;fontSize=16;strokeWidth=2;sketch=1;curveFitting=1;jiggle=2;" parent="1" vertex="1">
                    <mxGeometry x="360" y="40" width="170" height="130" as="geometry"/>
                </mxCell>
                <mxCell id="17" value="Scrum &lt;br&gt;Innovator" style="ellipse;whiteSpace=wrap;html=1;strokeColor=#000000;fillColor=none;fontStyle=1;fontColor=#000000;fontSize=16;strokeWidth=2;sketch=1;curveFitting=1;jiggle=2;" parent="1" vertex="1">
                    <mxGeometry x="520" y="40" width="130" height="120" as="geometry"/>
                </mxCell>
                <mxCell id="19" value="Scrum-Denier" style="ellipse;whiteSpace=wrap;html=1;strokeColor=#000000;fillColor=none;fontStyle=1;fontColor=#000000;fontSize=16;strokeWidth=2;sketch=1;curveFitting=1;jiggle=2;" parent="1" vertex="1">
                    <mxGeometry x="100" y="410" width="230" height="130" as="geometry"/>
                </mxCell>
                <mxCell id="20" value="Agile-Deceiver" style="ellipse;whiteSpace=wrap;html=1;strokeColor=#000000;fillColor=none;fontStyle=1;fontColor=#000000;fontSize=16;strokeWidth=2;sketch=1;curveFitting=1;jiggle=2;" parent="1" vertex="1">
                    <mxGeometry x="260" y="320" width="240" height="150" as="geometry"/>
                </mxCell>
                <mxCell id="21" value="Scrum-Hype &lt;br&gt;Follower" style="ellipse;whiteSpace=wrap;html=1;strokeColor=#000000;fillColor=none;fontStyle=1;fontColor=#000000;fontSize=16;strokeWidth=2;sketch=1;curveFitting=1;jiggle=2;" parent="1" vertex="1">
                    <mxGeometry x="160" y="120" width="170" height="140" as="geometry"/>
                </mxCell>
                <mxCell id="22" value="Undisciplined &lt;br&gt;Scrum-User" style="ellipse;whiteSpace=wrap;html=1;strokeColor=#000000;fillColor=none;fontStyle=1;fontColor=#000000;fontSize=16;strokeWidth=2;sketch=1;curveFitting=1;jiggle=2;" parent="1" vertex="1">
                    <mxGeometry x="120" y="236" width="250" height="150" as="geometry"/>
                </mxCell>
                <mxCell id="23" value="Highly-Motivated&lt;br&gt;Individuals" style="ellipse;whiteSpace=wrap;html=1;strokeColor=#000000;fillColor=none;fontStyle=1;fontColor=#000000;fontSize=16;strokeWidth=2;sketch=1;curveFitting=1;jiggle=2;" parent="1" vertex="1">
                    <mxGeometry x="283" y="150" width="277" height="160" as="geometry"/>
                </mxCell>
            </root>
        </mxGraphModel>
    </diagram>
</mxfile>